<svg width="64" height="64" viewBox="0 0 64 64" fill="none" xmlns="http://www.w3.org/2000/svg" role="img" aria-label="Lumora">
  <defs>
    <linearGradient id="lg" x1="8" y1="6" x2="56" y2="58" gradientUnits="userSpaceOnUse">
      <stop stop-color="#6366F1"/>
      <stop offset="0.55" stop-color="#7C5CFF"/>
      <stop offset="1" stop-color="#9D7BFF"/>
    </linearGradient>
    <radialGradient id="glow" cx="0.32" cy="0.28" r="0.85">
      <stop stop-color="#ffffff" stop-opacity="0.34"/>
      <stop offset="1" stop-color="#ffffff" stop-opacity="0"/>
    </radialGradient>
  </defs>
  <rect x="4" y="4" width="56" height="56" rx="17" fill="url(#lg)"/>
  <rect x="4" y="4" width="56" height="56" rx="17" fill="url(#glow)"/>
  <!-- aperture ring -->
  <circle cx="32" cy="32" r="17.5" stroke="#ffffff" stroke-opacity="0.42" stroke-width="2.4"/>
  <!-- medical cross -->
  <path d="M32 19.5a3 3 0 0 1 3 3V29h6.5a3 3 0 1 1 0 6H35v6.5a3 3 0 1 1-6 0V35h-6.5a3 3 0 1 1 0-6H29v-6.5a3 3 0 0 1 3-3Z" fill="#ffffff"/>
  <!-- pulse tick across the cross -->
  <path d="M14 32h7l3-6 4 12 3.5-7 2.5 5H50" stroke="#ffffff" stroke-opacity="0.9" stroke-width="2.2" stroke-linecap="round" stroke-linejoin="round" fill="none"/>
</svg>
